# xmcd CD database generated by RipIT
#
# Track frame offsets:
# 225
# 11196
# 23940
# 35770
# 47071
# 56590
# 69144
# 80221
# 90602
# 102685
# 112619
# 121160
# 133075
# 144600
# 154645
# 165918
# 178060
# 186412
#
# Disc length: 2621 seconds
#
# Revision: 1
# Processed by: cddbd v1.5.2PL0 Copyright (c) Steve Scherf et al.
# Submitted via: RipIT 3.8.1 www.suwald.com/ripit/ripit.html on 2009-12-13 at 20:06
#
DISCID=f60a3a12
DTITLE=Johnny Cash - Johnny Cash - 1
DYEAR=1900
DGENRE=Country
TTITLE0=Cry! Cry! Cry!
TTITLE1=Folsom Prison Blues
TTITLE2=So goggone lonesome
TTITLE3=Mean eyed cat
TTITLE4=New Mexico
TTITLE5=I walk the Line
TTITLE6=I love you because
TTITLE7=Straight as in Love
TTITLE8=Home of the Blues
TTITLE9=Rock Island Line
TTITLE10=Country Boy
TTITLE11=Doin'my Time
TTITLE12=Big River
TTITLE13=Ballad of a Teenager Queen
TTITLE14=Oh Lonesome me
TTITLE15=You're the nearest Thing to Heaven
TTITLE16=Always alone
TTITLE17=You win again
EXTD=
EXTT0=
EXTT1=
EXTT2=
EXTT3=
EXTT4=
EXTT5=
EXTT6=
EXTT7=
EXTT8=
EXTT9=
EXTT10=
EXTT11=
EXTT12=
EXTT13=
EXTT14=
EXTT15=
EXTT16=
EXTT17=
PLAYORDER=
